<?xml version="1.0" encoding="utf-8"?>
<svg viewBox="0 0 500 500" xmlns="http://www.w3.org/2000/svg">
  <path fill-rule="evenodd" clip-rule="evenodd" d="M 56.988 38.076 C 48.646 35.057 39.514 39.575 36.592 48.192 C 33.647 56.81 38.042 66.242 46.363 69.262 L 51.953 71.29 C 66.183 76.468 75.549 79.885 82.439 83.389 C 88.905 86.65 91.764 89.318 93.641 92.161 C 95.561 95.069 97.054 99.059 97.886 107.081 C 98.762 115.456 98.783 126.365 98.783 142.674 L 98.783 200.02 C 98.783 264.838 100.127 286.237 118.624 306.381 C 137.1 326.524 166.862 326.524 226.365 326.524 L 339.505 326.524 C 372.809 326.524 389.449 326.524 401.226 316.607 C 412.981 306.69 416.353 289.852 423.073 256.154 L 433.74 202.708 C 441.144 164.383 444.856 145.231 435.383 132.514 C 425.91 119.797 393.546 119.797 357.596 119.797 L 130.635 119.797 C 130.486 113.826 130.209 108.404 129.698 103.511 C 128.567 92.579 126.07 82.596 120.054 73.493 C 113.995 64.347 105.93 58.463 96.542 53.702 C 87.753 49.25 76.573 45.196 63.409 40.413 L 56.988 38.076 Z M 253.46 213.463 L 285.463 213.463 L 312.131 213.463 C 320.985 213.463 328.133 220.847 328.133 229.993 C 328.133 239.118 320.985 246.523 312.131 246.523 L 285.463 246.523 L 253.46 246.523 L 226.792 246.523 C 217.959 246.523 210.792 239.118 210.792 229.993 C 210.792 220.847 217.959 213.463 226.792 213.463 L 253.46 213.463 Z" fill="#1C274C" style="transform-origin: 238.356px 181.837px;"/>
  <path d="M 152.12 384.267 C 169.806 384.267 184.123 399.055 184.123 417.327 C 184.123 435.575 169.806 450.384 152.12 450.384 C 134.455 450.384 120.117 435.575 120.117 417.327 C 120.117 399.055 134.455 384.267 152.12 384.267 Z" fill="#1C274C" style="transform-origin: 152.12px 417.327px;"/>
  <path d="M 344.134 384.267 C 361.82 384.267 376.137 399.055 376.137 417.327 C 376.137 435.575 361.82 450.384 344.134 450.384 C 326.469 450.384 312.131 435.575 312.131 417.327 C 312.131 399.055 326.469 384.267 344.134 384.267 Z" fill="#1C274C" style="transform-origin: 344.134px 417.327px;"/>
</svg>